<svg xmlns="http://www.w3.org/2000/svg"><symbol id="mecha-stilts" viewBox="0 0 256.8 256.8"><path fill="#fff" d="M79.8 157.8h13v12.83h-13zm17.1 0h20.4v12.83H96.9zm24.5 0h13v12.83h-13zm17.1 0h20.4v12.83h-20.4zm34.2-44.2H83.1c1-26.3 21-40.7 44.8-40.7s43.8 14.4 44.8 40.7zm-9.8 44.2h13v12.83h-13zm-95.3-40.1v36h120.6v-36zm109 26.3h-49.7a2 2 0 0 1 0-4.1h49.7a2 2 0 0 1 0 4.1z"/><path fill="#fff" d="M127.9 4.9l-107.4 62v124l107.4 62 107.4-62v-124zm64.4 150.9a1.9 1.9 0 0 1-2 2H180v12.8h10.2a2 2 0 1 1 0 4.1H65.6a2 2 0 1 1 0-4.1h10.1v-12.8H65.6a1.9 1.9 0 0 1-2-2v-40.2a1.9 1.9 0 0 1 2-2H79c1-28.9 22.6-44.8 48.9-44.8s47.8 15.9 48.9 44.8h13.4a1.9 1.9 0 0 1 2 2z"/></symbol><symbol id="space-bubbles" viewBox="0 0 256.8 256.8"><path fill="#fff" d="M104 157.2l-34.4 18.1-2.8-4.1 17.9-21.1h13.4l5.9 7.1zm2.9 3.2l8.3 10.2H87.6l19.3-10.2zm45.4-10.3l-17.1 20.5h-14.7l-17.1-20.5h48.9zm-3.4 10.3l19.3 10.2h-27.7l8.4-10.2zm-61.6-29.1c-2-4.7-2.4-10.2-2.4-15.5a44.1 44.1 0 0 1 88.2 0 49.2 49.2 0 0 1-2.4 15.5zm-14 4.1h111.4v10.59H73.3zm97.7 14.7l18 21.3-2.9 3.9-34.6-18.1 6.1-7.1H171z"/><path fill="#fff" d="M127.9 4.9l-107.4 62v124l107.4 62 107.4-62v-124zM193 172.4l-4.7 6.7a2.2 2.2 0 0 1-2.6.6l-9.8-5.1H79.6l-9.8 5.1a2.2 2.2 0 0 1-2.6-.6l-4.7-6.7a2.1 2.1 0 0 1 .2-2.4l16.9-19.9h-8.3a1.9 1.9 0 0 1-2-2v-14.7a1.9 1.9 0 0 1 2-2h11.8a56.9 56.9 0 0 1-2.2-15.5 48.2 48.2 0 0 1 96.3 0 50 50 0 0 1-2.2 15.5h11.8a1.9 1.9 0 0 1 2 2V148a1.9 1.9 0 0 1-2 2h-10.5l16.7 20a2.2 2.2 0 0 1 0 2.4z"/></symbol><symbol id="super-domes" viewBox="0 0 256.8 256.8"><path fill="#fff" d="M124.8 83.5l-32.4 45.2H70.6c6.3-24.7 28.1-43.6 54.2-45.2zm2 4v41.2H97.5l29.3-41.2zM72.1 148h54.8v22.61H72.1zm58.8 0h9.2v22.61h-9.2zm13.2 0h41.5v22.61h-41.5zm43-19.3h-56.2V83.3a60.5 60.5 0 0 1 56.2 45.4zm-126.7 4h136.8v11.2H60.4z"/><path fill="#fff" d="M128.9 4.9l-107.4 62v124l107.4 62 107.4-62v-124zM216.6 148h-26.8v24.6a1.9 1.9 0 0 1-2 2H70a1.9 1.9 0 0 1-2-2V148H41.1a2 2 0 0 1 0-4.1h15.3v-13.2a1.9 1.9 0 0 1 2-2h7.9a64.6 64.6 0 0 1 62.3-49.5c.2-.2.4-.2.8 0 30.1.2 55.2 21.4 61.9 49.5h7.9a1.9 1.9 0 0 1 2 2v13.2h15.3a2 2 0 1 1 0 4.1z"/></symbol></svg>