<svg xmlns="http://www.w3.org/2000/svg"><symbol id="mecha-stilts" viewBox="0 0 256.8 256.8"><path fill="#fff" d="M85.4 154.4h11.5v11.34H85.4zm15.1 0h18v11.34h-18zm21.6 0h11.5v11.34h-11.5zm15.1 0h18v11.34h-18zm30.3-39H88.3c.9-23.2 18.5-36 39.6-36s38.7 12.8 39.6 36zm-8.7 39h11.5v11.34h-11.5zM74.6 119v31.9h106.6V119zm96.3 23.2H127a1.8 1.8 0 0 1 0-3.6h43.9a1.8 1.8 0 0 1 0 3.6z"/><path fill="#fff" d="M127.9 19.3L33 74.1v109.6l94.9 54.8 94.9-54.8V74.1zm56.9 133.4a1.7 1.7 0 0 1-1.8 1.8h-9v11.3h9a1.8 1.8 0 1 1 0 3.6H72.8a1.8 1.8 0 1 1 0-3.6h9v-11.4h-9a1.7 1.7 0 0 1-1.8-1.8v-35.4a1.7 1.7 0 0 1 1.8-1.8h11.9c.9-25.6 20-39.6 43.2-39.6s42.3 14 43.2 39.6H183a1.7 1.7 0 0 1 1.8 1.8z"/></symbol><symbol id="space-bubbles" viewBox="0 0 256.8 256.8"><path fill="#fff" d="M106.8 153.9l-30.4 16-2.5-3.6 15.8-18.7h11.9l5.2 6.3zm2.5 2.9l7.4 9H92.2l17.1-9zm40.2-9.2l-15.1 18.2h-13l-15.1-18.2h43.2zm-3.1 9.2l17.1 9H139l7.4-9zM92.1 131c-1.8-4.1-2.2-9-2.2-13.7a39 39 0 0 1 77.9 0 43.5 43.5 0 0 1-2.2 13.7zm-12.5 3.6h98.5v9.36H79.6zm86.4 13l15.9 18.9-2.5 3.4-30.6-16 5.4-6.3H166z"/><path fill="#fff" d="M127.9 19.3L33 74.1v109.6l94.9 54.8 94.9-54.8V74.1zm57.6 148.1l-4.1 5.9a1.9 1.9 0 0 1-2.3.5l-8.6-4.5H85.2l-8.6 4.5a2 2 0 0 1-2.3-.5l-4.1-5.9a1.9 1.9 0 0 1 .2-2.2l14.9-17.6h-7.5a1.7 1.7 0 0 1-1.8-1.8v-13a1.7 1.7 0 0 1 1.8-1.8h10.5a50.3 50.3 0 0 1-2-13.7 42.6 42.6 0 0 1 85.1 0 44.2 44.2 0 0 1-2 13.7h10.4a1.7 1.7 0 0 1 1.8 1.8v13a1.7 1.7 0 0 1-1.8 1.8h-9.2l14.8 17.6a1.9 1.9 0 0 1 .1 2.2z"/></symbol><symbol id="super-domes" viewBox="0 0 256.8 256.8"><path fill="#fff" d="M125.3 88.7l-28.6 40H77.4c5.6-21.8 24.8-38.5 47.9-40zm1.8 3.6v36.4h-25.9l25.9-36.4zm-48.4 53.5h48.4v19.98H78.7zm52 0h8.1v19.98h-8.1zm11.7 0h36.7v19.98h-36.7zm37.9-17.1h-49.6V88.6a53.5 53.5 0 0 1 49.6 40.1zm-111.9 3.6h120.9v9.9H68.4z"/><path fill="#fff" d="M128.9 19.3L34 74.1v109.6l94.9 54.8 94.9-54.8V74.1zm77.6 126.5h-23.8v21.8a1.7 1.7 0 0 1-1.8 1.8h-104a1.7 1.7 0 0 1-1.8-1.8v-21.8H51.3a1.8 1.8 0 0 1 0-3.6h13.5v-11.7a1.7 1.7 0 0 1 1.8-1.8h7A57.1 57.1 0 0 1 128.7 85c.2-.2.4-.2.7 0a56.9 56.9 0 0 1 54.7 43.7h7a1.7 1.7 0 0 1 1.8 1.8v11.7h13.5a1.8 1.8 0 1 1 0 3.6z"/></symbol></svg>